# Blender v2.92.0 OBJ File: ''
# www.blender.org
o Cube
v -1 -1 1
v -1 1 1
v -1 -1 -1
v -1 1 -1
v 1 -1 1
v 1 1 1
v 1 -1 -1
v 1 1 -1
vt 0.375 0
vt 0.625 0
vt 0.625 0.25
vt 0.375 0.25
vt 0.625 0.50
vt 0.375 0.50
vt 0.625 0.75
vt 0.375 0.75
vt 0.625 1
vt 0.375 1
vt 0.125 0.50
vt 0.125 0.75
vt 0.875 0.50
vt 0.875 0.75
vn -1 0 0
vn 0 0 -1
vn 1 0 0
vn 0 0 1
vn 0 -1 0
vn 0 1 0
usemtl metallic
f 1/1/1 2/2/1 4/3/1 3/4/1
f 3/4/2 4/3/2 8/5/2 7/6/2
f 7/6/3 8/5/3 6/7/3 5/8/3
f 5/8/4 6/7/4 2/9/4 1/10/4
f 3/11/5 7/6/5 5/8/5 1/12/5
f 8/5/6 4/13/6 2/14/6 6/7/6
